<svg xmlns="http://www.w3.org/2000/svg" width="1005" height="600"><rect width="1005" height="600" x="0" y="0" fill="#ffffff" id="background"/><g transform="translate(50,50)" id="viz"><g id="y axis" fill="none" font-size="10" font-family="sans-serif" text-anchor="end"><path class="domain" stroke="currentColor" d="M-6,500H0V0H-6"/><g class="tick" opacity="1" transform="translate(0,500)"><line stroke="currentColor" x2="-6"/><text fill="currentColor" x="-9" dy="0.32em">0</text></g><g class="tick" opacity="1" transform="translate(0,458.3333333333333)"><line stroke="currentColor" x2="-6"/><text fill="currentColor" x="-9" dy="0.32em">2</text></g><g class="tick" opacity="1" transform="translate(0,416.6666666666667)"><line stroke="currentColor" x2="-6"/><text fill="currentColor" x="-9" dy="0.32em">4</text></g><g class="tick" opacity="1" transform="translate(0,375)"><line stroke="currentColor" x2="-6"/><text fill="currentColor" x="-9" dy="0.32em">6</text></g><g class="tick" opacity="1" transform="translate(0,333.33333333333337)"><line stroke="currentColor" x2="-6"/><text fill="currentColor" x="-9" dy="0.32em">8</text></g><g class="tick" opacity="1" transform="translate(0,291.66666666666663)"><line stroke="currentColor" x2="-6"/><text fill="currentColor" x="-9" dy="0.32em">10</text></g><g class="tick" opacity="1" transform="translate(0,250)"><line stroke="currentColor" x2="-6"/><text fill="currentColor" x="-9" dy="0.32em">12</text></g><g class="tick" opacity="1" transform="translate(0,208.33333333333331)"><line stroke="currentColor" x2="-6"/><text fill="currentColor" x="-9" dy="0.32em">14</text></g><g class="tick" opacity="1" transform="translate(0,166.66666666666669)"><line stroke="currentColor" x2="-6"/><text fill="currentColor" x="-9" dy="0.32em">16</text></g><g class="tick" opacity="1" transform="translate(0,125)"><line stroke="currentColor" x2="-6"/><text fill="currentColor" x="-9" dy="0.32em">18</text></g><g class="tick" opacity="1" transform="translate(0,83.33333333333331)"><line stroke="currentColor" x2="-6"/><text fill="currentColor" x="-9" dy="0.32em">20</text></g><g class="tick" opacity="1" transform="translate(0,41.666666666666686)"><line stroke="currentColor" x2="-6"/><text fill="currentColor" x="-9" dy="0.32em">22</text></g><g class="tick" opacity="1" transform="translate(0,0)"><line stroke="currentColor" x2="-6"/><text fill="currentColor" x="-9" dy="0.32em">24</text></g><text x="4" text-anchor="start" dominant-baseline="hanging" style="font-family: Arial, sans-serif; font-size: 12px; fill: rgb(123, 123, 123); font-weight: bold;">time</text></g><g id="x axis" transform="translate(0,500)" fill="none" font-size="10" font-family="sans-serif" text-anchor="middle"><path class="domain" stroke="currentColor" d="M0,6V0H745V6"/><g class="tick" opacity="1" transform="translate(31.49938561215367,0)"><line stroke="currentColor" y2="6"/><text fill="currentColor" y="9" dy="0.71em">21/12/2015</text></g><g class="tick" opacity="1" transform="translate(93.49949731903482,0)"><line stroke="currentColor" y2="6"/><text fill="currentColor" y="9" dy="0.71em">16/12/2016</text></g><g class="tick" opacity="1" transform="translate(155.49960902591596,0)"><line stroke="currentColor" y2="6"/><text fill="currentColor" y="9" dy="0.71em">24/12/2017</text></g><g class="tick" opacity="1" transform="translate(217.49972073279713,0)"><line stroke="currentColor" y2="6"/><text fill="currentColor" y="9" dy="0.71em">2/02/2018</text></g><g class="tick" opacity="1" transform="translate(279.49983243967824,0)"><line stroke="currentColor" y2="6"/><text fill="currentColor" y="9" dy="0.71em">31/03/2019</text></g><g class="tick" opacity="1" transform="translate(341.4999441465594,0)"><line stroke="currentColor" y2="6"/><text fill="currentColor" y="9" dy="0.71em">19/01/2020</text></g><g class="tick" opacity="1" transform="translate(403.5000558534406,0)"><line stroke="currentColor" y2="6"/><text fill="currentColor" y="9" dy="0.71em">14/04/2021</text></g><g class="tick" opacity="1" transform="translate(465.5001675603217,0)"><line stroke="currentColor" y2="6"/><text fill="currentColor" y="9" dy="0.71em">21/06/2022</text></g><g class="tick" opacity="1" transform="translate(527.5002792672028,0)"><line stroke="currentColor" y2="6"/><text fill="currentColor" y="9" dy="0.71em">19/07/2023</text></g><g class="tick" opacity="1" transform="translate(589.5003909740839,0)"><line stroke="currentColor" y2="6"/><text fill="currentColor" y="9" dy="0.71em">6/02/2024</text></g><g class="tick" opacity="1" transform="translate(651.500502680965,0)"><line stroke="currentColor" y2="6"/><text fill="currentColor" y="9" dy="0.71em">24/12/2025</text></g><g class="tick" opacity="1" transform="translate(713.5006143878462,0)"><line stroke="currentColor" y2="6"/><text fill="currentColor" y="9" dy="0.71em">15/01/2026</text></g><text x="745" dy="-5" text-anchor="end" style="font-family: Arial, sans-serif; font-size: 12px; fill: rgb(123, 123, 123); font-weight: bold;">peak_day</text></g><g id="shapes"><g id="21/12/2015" transform="translate(0.9986595174262334 ,0)" style="fill: rgb(121, 83, 245);"><path d="M30.500726094727437,520.8333333333334C30.500726094727437,500,31.650028817137457,500,31.650028817137457,479.1666666666667C31.650028817137457,458.33333333333337,30.500726094727437,458.33333333333337,30.500726094727437,437.5C30.500726094727437,416.66666666666663,30.500726094727437,416.66666666666663,30.500726094727437,395.8333333333333C30.500726094727437,375,30.500726094727437,375,30.500726094727437,354.16666666666663C30.500726094727437,333.3333333333333,30.500726094727437,333.3333333333333,30.500726094727437,312.5C30.500726094727437,291.6666666666667,30.500726094727437,291.6666666666667,30.500726094727437,270.83333333333337C30.500726094727437,250.00000000000003,30.500726094727437,250.00000000000003,30.500726094727437,229.16666666666669C30.500726094727437,208.33333333333334,31.82684462058515,208.33333333333334,31.82684462058515,187.5C31.82684462058515,166.66666666666666,30.500726094727437,166.66666666666666,30.500726094727437,145.83333333333331C30.500726094727437,125,30.500726094727437,125,30.500726094727437,104.16666666666669C30.500726094727437,83.33333333333334,32.62251573609978,83.33333333333334,32.62251573609978,62.5C32.62251573609978,41.66666666666666,31.7384367188613,41.66666666666666,31.7384367188613,20.833333333333314C31.7384367188613,-2.842170943040401e-14,30.500726094727437,-2.842170943040401e-14,30.500726094727437,-20.83333333333337L30.500726094727437,-20.83333333333337C30.500726094727437,-2.842170943040401e-14,29.26301547059357,-2.842170943040401e-14,29.26301547059357,20.833333333333314C29.26301547059357,41.66666666666666,28.37893645335509,41.66666666666666,28.37893645335509,62.5C28.37893645335509,83.33333333333334,30.500726094727437,83.33333333333334,30.500726094727437,104.16666666666669C30.500726094727437,125,30.500726094727437,125,30.500726094727437,145.83333333333331C30.500726094727437,166.66666666666666,29.174607568869725,166.66666666666666,29.174607568869725,187.5C29.174607568869725,208.33333333333334,30.500726094727437,208.33333333333334,30.500726094727437,229.16666666666669C30.500726094727437,250.00000000000003,30.500726094727437,250.00000000000003,30.500726094727437,270.83333333333337C30.500726094727437,291.6666666666667,30.500726094727437,291.6666666666667,30.500726094727437,312.5C30.500726094727437,333.3333333333333,30.500726094727437,333.3333333333333,30.500726094727437,354.16666666666663C30.500726094727437,375,30.500726094727437,375,30.500726094727437,395.8333333333333C30.500726094727437,416.66666666666663,30.500726094727437,416.66666666666663,30.500726094727437,437.5C30.500726094727437,458.33333333333337,29.35142337231742,458.33333333333337,29.35142337231742,479.1666666666667C29.35142337231742,500,30.500726094727437,500,30.500726094727437,520.8333333333334Z" style="stroke: none;"/></g><g id="16/12/2016" transform="translate(62.99877122430738 ,0)" style="fill: rgb(44, 160, 44);"><path d="M30.500726094727437,520.8333333333334C30.500726094727437,500,30.500726094727437,500,30.500726094727437,479.1666666666667C30.500726094727437,458.33333333333337,30.500726094727437,458.33333333333337,30.500726094727437,437.5C30.500726094727437,416.66666666666663,30.500726094727437,416.66666666666663,30.500726094727437,395.8333333333333C30.500726094727437,375,30.500726094727437,375,30.500726094727437,354.16666666666663C30.500726094727437,333.3333333333333,30.500726094727437,333.3333333333333,30.500726094727437,312.5C30.500726094727437,291.6666666666667,30.500726094727437,291.6666666666667,30.500726094727437,270.83333333333337C30.500726094727437,250.00000000000003,33.24137104816671,250.00000000000003,33.24137104816671,229.16666666666669C33.24137104816671,208.33333333333334,30.500726094727437,208.33333333333334,30.500726094727437,187.5C30.500726094727437,166.66666666666666,30.500726094727437,166.66666666666666,30.500726094727437,145.83333333333331C30.500726094727437,125,39.3415162671122,125,39.3415162671122,104.16666666666669C39.3415162671122,83.33333333333334,30.500726094727437,83.33333333333334,30.500726094727437,62.5C30.500726094727437,41.66666666666666,30.500726094727437,41.66666666666666,30.500726094727437,20.833333333333314C30.500726094727437,-2.842170943040401e-14,30.500726094727437,-2.842170943040401e-14,30.500726094727437,-20.83333333333337L30.500726094727437,-20.83333333333337C30.500726094727437,-2.842170943040401e-14,30.500726094727437,-2.842170943040401e-14,30.500726094727437,20.833333333333314C30.500726094727437,41.66666666666666,30.500726094727437,41.66666666666666,30.500726094727437,62.5C30.500726094727437,83.33333333333334,21.659935922342672,83.33333333333334,21.659935922342672,104.16666666666669C21.659935922342672,125,30.500726094727437,125,30.500726094727437,145.83333333333331C30.500726094727437,166.66666666666666,30.500726094727437,166.66666666666666,30.500726094727437,187.5C30.500726094727437,208.33333333333334,27.76008114128816,208.33333333333334,27.76008114128816,229.16666666666669C27.76008114128816,250.00000000000003,30.500726094727437,250.00000000000003,30.500726094727437,270.83333333333337C30.500726094727437,291.6666666666667,30.500726094727437,291.6666666666667,30.500726094727437,312.5C30.500726094727437,333.3333333333333,30.500726094727437,333.3333333333333,30.500726094727437,354.16666666666663C30.500726094727437,375,30.500726094727437,375,30.500726094727437,395.8333333333333C30.500726094727437,416.66666666666663,30.500726094727437,416.66666666666663,30.500726094727437,437.5C30.500726094727437,458.33333333333337,30.500726094727437,458.33333333333337,30.500726094727437,479.1666666666667C30.500726094727437,500,30.500726094727437,500,30.500726094727437,520.8333333333334Z" style="stroke: none;"/></g><g id="24/12/2017" transform="translate(124.99888293118853 ,0)" style="fill: rgb(188, 189, 34);"><path d="M30.500726094727437,520.8333333333334C30.500726094727437,500,30.500726094727437,500,30.500726094727437,479.1666666666667C30.500726094727437,458.33333333333337,30.500726094727437,458.33333333333337,30.500726094727437,437.5C30.500726094727437,416.66666666666663,30.500726094727437,416.66666666666663,30.500726094727437,395.8333333333333C30.500726094727437,375,39.42992416883605,375,39.42992416883605,354.16666666666663C39.42992416883605,333.3333333333333,30.500726094727437,333.3333333333333,30.500726094727437,312.5C30.500726094727437,291.6666666666667,30.500726094727437,291.6666666666667,30.500726094727437,270.83333333333337C30.500726094727437,250.00000000000003,30.500726094727437,250.00000000000003,30.500726094727437,229.16666666666669C30.500726094727437,208.33333333333334,30.500726094727437,208.33333333333334,30.500726094727437,187.5C30.500726094727437,166.66666666666666,30.500726094727437,166.66666666666666,30.500726094727437,145.83333333333331C30.500726094727437,125,30.500726094727437,125,30.500726094727437,104.16666666666669C30.500726094727437,83.33333333333334,30.500726094727437,83.33333333333334,30.500726094727437,62.5C30.500726094727437,41.66666666666666,40.31400318607452,41.66666666666666,40.31400318607452,20.833333333333314C40.31400318607452,-2.842170943040401e-14,30.500726094727437,-2.842170943040401e-14,30.500726094727437,-20.83333333333337L30.500726094727437,-20.83333333333337C30.500726094727437,-2.842170943040401e-14,20.687449003380348,-2.842170943040401e-14,20.687449003380348,20.833333333333314C20.687449003380348,41.66666666666666,30.500726094727437,41.66666666666666,30.500726094727437,62.5C30.500726094727437,83.33333333333334,30.500726094727437,83.33333333333334,30.500726094727437,104.16666666666669C30.500726094727437,125,30.500726094727437,125,30.500726094727437,145.83333333333331C30.500726094727437,166.66666666666666,30.500726094727437,166.66666666666666,30.500726094727437,187.5C30.500726094727437,208.33333333333334,30.500726094727437,208.33333333333334,30.500726094727437,229.16666666666669C30.500726094727437,250.00000000000003,30.500726094727437,250.00000000000003,30.500726094727437,270.83333333333337C30.500726094727437,291.6666666666667,30.500726094727437,291.6666666666667,30.500726094727437,312.5C30.500726094727437,333.3333333333333,21.571528020618825,333.3333333333333,21.571528020618825,354.16666666666663C21.571528020618825,375,30.500726094727437,375,30.500726094727437,395.8333333333333C30.500726094727437,416.66666666666663,30.500726094727437,416.66666666666663,30.500726094727437,437.5C30.500726094727437,458.33333333333337,30.500726094727437,458.33333333333337,30.500726094727437,479.1666666666667C30.500726094727437,500,30.500726094727437,500,30.500726094727437,520.8333333333334Z" style="stroke: none;"/></g><g id="2/02/2018" transform="translate(186.9989946380697 ,0)" style="fill: rgb(140, 86, 75);"><path d="M30.500726094727437,520.8333333333334C30.500726094727437,500,30.500726094727437,500,30.500726094727437,479.1666666666667C30.500726094727437,458.33333333333337,30.500726094727437,458.33333333333337,30.500726094727437,437.5C30.500726094727437,416.66666666666663,61.001452189454874,416.66666666666663,61.001452189454874,395.8333333333333C61.001452189454874,375,30.500726094727437,375,30.500726094727437,354.16666666666663C30.500726094727437,333.3333333333333,30.500726094727437,333.3333333333333,30.500726094727437,312.5C30.500726094727437,291.6666666666667,30.500726094727437,291.6666666666667,30.500726094727437,270.83333333333337C30.500726094727437,250.00000000000003,30.500726094727437,250.00000000000003,30.500726094727437,229.16666666666669C30.500726094727437,208.33333333333334,30.500726094727437,208.33333333333334,30.500726094727437,187.5C30.500726094727437,166.66666666666666,30.500726094727437,166.66666666666666,30.500726094727437,145.83333333333331C30.500726094727437,125,30.500726094727437,125,30.500726094727437,104.16666666666669C30.500726094727437,83.33333333333334,30.500726094727437,83.33333333333334,30.500726094727437,62.5C30.500726094727437,41.66666666666666,30.500726094727437,41.66666666666666,30.500726094727437,20.833333333333314C30.500726094727437,-2.842170943040401e-14,30.500726094727437,-2.842170943040401e-14,30.500726094727437,-20.83333333333337L30.500726094727437,-20.83333333333337C30.500726094727437,-2.842170943040401e-14,30.500726094727437,-2.842170943040401e-14,30.500726094727437,20.833333333333314C30.500726094727437,41.66666666666666,30.500726094727437,41.66666666666666,30.500726094727437,62.5C30.500726094727437,83.33333333333334,30.500726094727437,83.33333333333334,30.500726094727437,104.16666666666669C30.500726094727437,125,30.500726094727437,125,30.500726094727437,145.83333333333331C30.500726094727437,166.66666666666666,30.500726094727437,166.66666666666666,30.500726094727437,187.5C30.500726094727437,208.33333333333334,30.500726094727437,208.33333333333334,30.500726094727437,229.16666666666669C30.500726094727437,250.00000000000003,30.500726094727437,250.00000000000003,30.500726094727437,270.83333333333337C30.500726094727437,291.6666666666667,30.500726094727437,291.6666666666667,30.500726094727437,312.5C30.500726094727437,333.3333333333333,30.500726094727437,333.3333333333333,30.500726094727437,354.16666666666663C30.500726094727437,375,0,375,0,395.8333333333333C0,416.66666666666663,30.500726094727437,416.66666666666663,30.500726094727437,437.5C30.500726094727437,458.33333333333337,30.500726094727437,458.33333333333337,30.500726094727437,479.1666666666667C30.500726094727437,500,30.500726094727437,500,30.500726094727437,520.8333333333334Z" style="stroke: none;"/></g><g id="31/03/2019" transform="translate(248.99910634495083 ,0)" style="fill: rgb(184, 74, 204);"><path d="M30.500726094727437,520.8333333333334C30.500726094727437,500,30.589133996451285,500,30.589133996451285,479.1666666666667C30.589133996451285,458.33333333333337,30.67754189817513,458.33333333333337,30.67754189817513,437.5C30.67754189817513,416.66666666666663,31.7384367188613,416.66666666666663,31.7384367188613,395.8333333333333C31.7384367188613,375,30.500726094727437,375,30.500726094727437,354.16666666666663C30.500726094727437,333.3333333333333,30.500726094727437,333.3333333333333,30.500726094727437,312.5C30.500726094727437,291.6666666666667,30.500726094727437,291.6666666666667,30.500726094727437,270.83333333333337C30.500726094727437,250.00000000000003,30.500726094727437,250.00000000000003,30.500726094727437,229.16666666666669C30.500726094727437,208.33333333333334,30.500726094727437,208.33333333333334,30.500726094727437,187.5C30.500726094727437,166.66666666666666,30.76594979989898,166.66666666666666,30.76594979989898,145.83333333333331C30.76594979989898,125,32.09206832575669,125,32.09206832575669,104.16666666666669C32.09206832575669,83.33333333333334,33.68341055678595,83.33333333333334,33.68341055678595,62.5C33.68341055678595,41.66666666666666,33.152963146442865,41.66666666666666,33.152963146442865,20.833333333333314C33.152963146442865,-2.842170943040401e-14,30.500726094727437,-2.842170943040401e-14,30.500726094727437,-20.83333333333337L30.500726094727437,-20.83333333333337C30.500726094727437,-2.842170943040401e-14,27.848489043012005,-2.842170943040401e-14,27.848489043012005,20.833333333333314C27.848489043012005,41.66666666666666,27.318041632668923,41.66666666666666,27.318041632668923,62.5C27.318041632668923,83.33333333333334,28.909383863698178,83.33333333333334,28.909383863698178,104.16666666666669C28.909383863698178,125,30.235502389555894,125,30.235502389555894,145.83333333333331C30.235502389555894,166.66666666666666,30.500726094727437,166.66666666666666,30.500726094727437,187.5C30.500726094727437,208.33333333333334,30.500726094727437,208.33333333333334,30.500726094727437,229.16666666666669C30.500726094727437,250.00000000000003,30.500726094727437,250.00000000000003,30.500726094727437,270.83333333333337C30.500726094727437,291.6666666666667,30.500726094727437,291.6666666666667,30.500726094727437,312.5C30.500726094727437,333.3333333333333,30.500726094727437,333.3333333333333,30.500726094727437,354.16666666666663C30.500726094727437,375,29.26301547059357,375,29.26301547059357,395.8333333333333C29.26301547059357,416.66666666666663,30.32391029127974,416.66666666666663,30.32391029127974,437.5C30.32391029127974,458.33333333333337,30.41231819300359,458.33333333333337,30.41231819300359,479.1666666666667C30.41231819300359,500,30.500726094727437,500,30.500726094727437,520.8333333333334Z" style="stroke: none;"/></g><g id="19/01/2020" transform="translate(310.999218051832 ,0)" style="fill: rgb(214, 39, 40);"><path d="M30.500726094727437,520.8333333333334C30.500726094727437,500,30.500726094727437,500,30.500726094727437,479.1666666666667C30.500726094727437,458.33333333333337,30.500726094727437,458.33333333333337,30.500726094727437,437.5C30.500726094727437,416.66666666666663,30.500726094727437,416.66666666666663,30.500726094727437,395.8333333333333C30.500726094727437,375,30.500726094727437,375,30.500726094727437,354.16666666666663C30.500726094727437,333.3333333333333,30.500726094727437,333.3333333333333,30.500726094727437,312.5C30.500726094727437,291.6666666666667,30.500726094727437,291.6666666666667,30.500726094727437,270.83333333333337C30.500726094727437,250.00000000000003,47.03300371708695,250.00000000000003,47.03300371708695,229.16666666666669C47.03300371708695,208.33333333333334,31.82684462058515,208.33333333333334,31.82684462058515,187.5C31.82684462058515,166.66666666666666,30.589133996451285,166.66666666666666,30.589133996451285,145.83333333333331C30.589133996451285,125,30.589133996451285,125,30.589133996451285,104.16666666666669C30.589133996451285,83.33333333333334,30.500726094727437,83.33333333333334,30.500726094727437,62.5C30.500726094727437,41.66666666666666,30.500726094727437,41.66666666666666,30.500726094727437,20.833333333333314C30.500726094727437,-2.842170943040401e-14,30.500726094727437,-2.842170943040401e-14,30.500726094727437,-20.83333333333337L30.500726094727437,-20.83333333333337C30.500726094727437,-2.842170943040401e-14,30.500726094727437,-2.842170943040401e-14,30.500726094727437,20.833333333333314C30.500726094727437,41.66666666666666,30.500726094727437,41.66666666666666,30.500726094727437,62.5C30.500726094727437,83.33333333333334,30.41231819300359,83.33333333333334,30.41231819300359,104.16666666666669C30.41231819300359,125,30.41231819300359,125,30.41231819300359,145.83333333333331C30.41231819300359,166.66666666666666,29.174607568869725,166.66666666666666,29.174607568869725,187.5C29.174607568869725,208.33333333333334,13.968448472367928,208.33333333333334,13.968448472367928,229.16666666666669C13.968448472367928,250.00000000000003,30.500726094727437,250.00000000000003,30.500726094727437,270.83333333333337C30.500726094727437,291.6666666666667,30.500726094727437,291.6666666666667,30.500726094727437,312.5C30.500726094727437,333.3333333333333,30.500726094727437,333.3333333333333,30.500726094727437,354.16666666666663C30.500726094727437,375,30.500726094727437,375,30.500726094727437,395.8333333333333C30.500726094727437,416.66666666666663,30.500726094727437,416.66666666666663,30.500726094727437,437.5C30.500726094727437,458.33333333333337,30.500726094727437,458.33333333333337,30.500726094727437,479.1666666666667C30.500726094727437,500,30.500726094727437,500,30.500726094727437,520.8333333333334Z" style="stroke: none;"/></g><g id="14/04/2021" transform="translate(372.99932975871315 ,0)" style="fill: rgb(31, 119, 180);"><path d="M30.500726094727437,520.8333333333334C30.500726094727437,500,33.064555244719024,500,33.064555244719024,479.1666666666667C33.064555244719024,458.33333333333337,33.24137104816671,458.33333333333337,33.24137104816671,437.5C33.24137104816671,416.66666666666663,32.88773944127132,416.66666666666663,32.88773944127132,395.8333333333333C32.88773944127132,375,33.152963146442865,375,33.152963146442865,354.16666666666663C33.152963146442865,333.3333333333333,30.500726094727437,333.3333333333333,30.500726094727437,312.5C30.500726094727437,291.6666666666667,30.500726094727437,291.6666666666667,30.500726094727437,270.83333333333337C30.500726094727437,250.00000000000003,30.67754189817513,250.00000000000003,30.67754189817513,229.16666666666669C30.67754189817513,208.33333333333334,31.119581406794367,208.33333333333334,31.119581406794367,187.5C31.119581406794367,166.66666666666666,30.500726094727437,166.66666666666666,30.500726094727437,145.83333333333331C30.500726094727437,125,31.20798930851822,125,31.20798930851822,104.16666666666669C31.20798930851822,83.33333333333334,30.589133996451285,83.33333333333334,30.589133996451285,62.5C30.589133996451285,41.66666666666666,31.38480511196591,41.66666666666666,31.38480511196591,20.833333333333314C31.38480511196591,-2.842170943040401e-14,30.500726094727437,-2.842170943040401e-14,30.500726094727437,-20.83333333333337L30.500726094727437,-20.83333333333337C30.500726094727437,-2.842170943040401e-14,29.61664707748896,-2.842170943040401e-14,29.61664707748896,20.833333333333314C29.61664707748896,41.66666666666666,30.41231819300359,41.66666666666666,30.41231819300359,62.5C30.41231819300359,83.33333333333334,29.793462880936655,83.33333333333334,29.793462880936655,104.16666666666669C29.793462880936655,125,30.500726094727437,125,30.500726094727437,145.83333333333331C30.500726094727437,166.66666666666666,29.881870782660506,166.66666666666666,29.881870782660506,187.5C29.881870782660506,208.33333333333334,30.32391029127974,208.33333333333334,30.32391029127974,229.16666666666669C30.32391029127974,250.00000000000003,30.500726094727437,250.00000000000003,30.500726094727437,270.83333333333337C30.500726094727437,291.6666666666667,30.500726094727437,291.6666666666667,30.500726094727437,312.5C30.500726094727437,333.3333333333333,27.848489043012005,333.3333333333333,27.848489043012005,354.16666666666663C27.848489043012005,375,28.113712748183552,375,28.113712748183552,395.8333333333333C28.113712748183552,416.66666666666663,27.76008114128816,416.66666666666663,27.76008114128816,437.5C27.76008114128816,458.33333333333337,27.936896944735857,458.33333333333337,27.936896944735857,479.1666666666667C27.936896944735857,500,30.500726094727437,500,30.500726094727437,520.8333333333334Z" style="stroke: none;"/></g><g id="21/06/2022" transform="translate(434.99944146559426 ,0)" style="fill: rgb(227, 119, 194);"><path d="M30.500726094727437,520.8333333333334C30.500726094727437,500,32.53410783437593,500,32.53410783437593,479.1666666666667C32.53410783437593,458.33333333333337,31.119581406794367,458.33333333333337,31.119581406794367,437.5C31.119581406794367,416.66666666666663,30.500726094727437,416.66666666666663,30.500726094727437,395.8333333333333C30.500726094727437,375,30.500726094727437,375,30.500726094727437,354.16666666666663C30.500726094727437,333.3333333333333,30.500726094727437,333.3333333333333,30.500726094727437,312.5C30.500726094727437,291.6666666666667,30.854357701622828,291.6666666666667,30.854357701622828,270.83333333333337C30.854357701622828,250.00000000000003,32.97614734299517,250.00000000000003,32.97614734299517,229.16666666666669C32.97614734299517,208.33333333333334,32.35729203092824,208.33333333333334,32.35729203092824,187.5C32.35729203092824,166.66666666666666,31.38480511196591,166.66666666666666,31.38480511196591,145.83333333333331C31.38480511196591,125,33.32977894989056,125,33.32977894989056,104.16666666666669C33.32977894989056,83.33333333333334,33.152963146442865,83.33333333333334,33.152963146442865,62.5C33.152963146442865,41.66666666666666,33.5950026550621,41.66666666666666,33.5950026550621,20.833333333333314C33.5950026550621,-2.842170943040401e-14,30.500726094727437,-2.842170943040401e-14,30.500726094727437,-20.83333333333337L30.500726094727437,-20.83333333333337C30.500726094727437,-2.842170943040401e-14,27.40644953439277,-2.842170943040401e-14,27.40644953439277,20.833333333333314C27.40644953439277,41.66666666666666,27.848489043012005,41.66666666666666,27.848489043012005,62.5C27.848489043012005,83.33333333333334,27.671673239564313,83.33333333333334,27.671673239564313,104.16666666666669C27.671673239564313,125,29.61664707748896,125,29.61664707748896,145.83333333333331C29.61664707748896,166.66666666666666,28.64416015852664,166.66666666666666,28.64416015852664,187.5C28.64416015852664,208.33333333333334,28.0253048464597,208.33333333333334,28.0253048464597,229.16666666666669C28.0253048464597,250.00000000000003,30.147094487832046,250.00000000000003,30.147094487832046,270.83333333333337C30.147094487832046,291.6666666666667,30.500726094727437,291.6666666666667,30.500726094727437,312.5C30.500726094727437,333.3333333333333,30.500726094727437,333.3333333333333,30.500726094727437,354.16666666666663C30.500726094727437,375,30.500726094727437,375,30.500726094727437,395.8333333333333C30.500726094727437,416.66666666666663,29.881870782660506,416.66666666666663,29.881870782660506,437.5C29.881870782660506,458.33333333333337,28.467344355078943,458.33333333333337,28.467344355078943,479.1666666666667C28.467344355078943,500,30.500726094727437,500,30.500726094727437,520.8333333333334Z" style="stroke: none;"/></g><g id="19/07/2023" transform="translate(496.99955317247543 ,0)" style="fill: rgb(148, 103, 189);"><path d="M30.500726094727437,520.8333333333334C30.500726094727437,500,32.53410783437593,500,32.53410783437593,479.1666666666667C32.53410783437593,458.33333333333337,32.18047622748054,458.33333333333337,32.18047622748054,437.5C32.18047622748054,416.66666666666663,30.589133996451285,416.66666666666663,30.589133996451285,395.8333333333333C30.589133996451285,375,30.500726094727437,375,30.500726094727437,354.16666666666663C30.500726094727437,333.3333333333333,30.500726094727437,333.3333333333333,30.500726094727437,312.5C30.500726094727437,291.6666666666667,30.500726094727437,291.6666666666667,30.500726094727437,270.83333333333337C30.500726094727437,250.00000000000003,31.56162091541361,250.00000000000003,31.56162091541361,229.16666666666669C31.56162091541361,208.33333333333334,32.18047622748054,208.33333333333334,32.18047622748054,187.5C32.18047622748054,166.66666666666666,32.18047622748054,166.66666666666666,32.18047622748054,145.83333333333331C32.18047622748054,125,31.915252522309,125,31.915252522309,104.16666666666669C31.915252522309,83.33333333333334,32.71092363782363,83.33333333333334,32.71092363782363,62.5C32.71092363782363,41.66666666666666,33.152963146442865,41.66666666666666,33.152963146442865,20.833333333333314C33.152963146442865,-2.842170943040401e-14,30.500726094727437,-2.842170943040401e-14,30.500726094727437,-20.83333333333337L30.500726094727437,-20.83333333333337C30.500726094727437,-2.842170943040401e-14,27.848489043012005,-2.842170943040401e-14,27.848489043012005,20.833333333333314C27.848489043012005,41.66666666666666,28.290528551631247,41.66666666666666,28.290528551631247,62.5C28.290528551631247,83.33333333333334,29.086199667145873,83.33333333333334,29.086199667145873,104.16666666666669C29.086199667145873,125,28.820975961974334,125,28.820975961974334,145.83333333333331C28.820975961974334,166.66666666666666,28.820975961974334,166.66666666666666,28.820975961974334,187.5C28.820975961974334,208.33333333333334,29.439831274041264,208.33333333333334,29.439831274041264,229.16666666666669C29.439831274041264,250.00000000000003,30.500726094727437,250.00000000000003,30.500726094727437,270.83333333333337C30.500726094727437,291.6666666666667,30.500726094727437,291.6666666666667,30.500726094727437,312.5C30.500726094727437,333.3333333333333,30.500726094727437,333.3333333333333,30.500726094727437,354.16666666666663C30.500726094727437,375,30.41231819300359,375,30.41231819300359,395.8333333333333C30.41231819300359,416.66666666666663,28.820975961974334,416.66666666666663,28.820975961974334,437.5C28.820975961974334,458.33333333333337,28.467344355078943,458.33333333333337,28.467344355078943,479.1666666666667C28.467344355078943,500,30.500726094727437,500,30.500726094727437,520.8333333333334Z" style="stroke: none;"/></g><g id="6/02/2024" transform="translate(558.9996648793565 ,0)" style="fill: rgb(87, 98, 204);"><path d="M30.500726094727437,520.8333333333334C30.500726094727437,500,35.27475278781521,500,35.27475278781521,479.1666666666667C35.27475278781521,458.33333333333337,35.6283843947106,458.33333333333337,35.6283843947106,437.5C35.6283843947106,416.66666666666663,33.68341055678595,416.66666666666663,33.68341055678595,395.8333333333333C33.68341055678595,375,33.506594753338256,375,33.506594753338256,354.16666666666663C33.506594753338256,333.3333333333333,33.5950026550621,333.3333333333333,33.5950026550621,312.5C33.5950026550621,291.6666666666667,33.506594753338256,291.6666666666667,33.506594753338256,270.83333333333337C33.506594753338256,250.00000000000003,33.24137104816671,250.00000000000003,33.24137104816671,229.16666666666669C33.24137104816671,208.33333333333334,30.500726094727437,208.33333333333334,30.500726094727437,187.5C30.500726094727437,166.66666666666666,31.38480511196591,166.66666666666666,31.38480511196591,145.83333333333331C31.38480511196591,125,30.500726094727437,125,30.500726094727437,104.16666666666669C30.500726094727437,83.33333333333334,30.589133996451285,83.33333333333334,30.589133996451285,62.5C30.589133996451285,41.66666666666666,31.915252522309,41.66666666666666,31.915252522309,20.833333333333314C31.915252522309,-2.842170943040401e-14,30.500726094727437,-2.842170943040401e-14,30.500726094727437,-20.83333333333337L30.500726094727437,-20.83333333333337C30.500726094727437,-2.842170943040401e-14,29.086199667145873,-2.842170943040401e-14,29.086199667145873,20.833333333333314C29.086199667145873,41.66666666666666,30.41231819300359,41.66666666666666,30.41231819300359,62.5C30.41231819300359,83.33333333333334,30.500726094727437,83.33333333333334,30.500726094727437,104.16666666666669C30.500726094727437,125,29.61664707748896,125,29.61664707748896,145.83333333333331C29.61664707748896,166.66666666666666,30.500726094727437,166.66666666666666,30.500726094727437,187.5C30.500726094727437,208.33333333333334,27.76008114128816,208.33333333333334,27.76008114128816,229.16666666666669C27.76008114128816,250.00000000000003,27.494857436116618,250.00000000000003,27.494857436116618,270.83333333333337C27.494857436116618,291.6666666666667,27.40644953439277,291.6666666666667,27.40644953439277,312.5C27.40644953439277,333.3333333333333,27.494857436116618,333.3333333333333,27.494857436116618,354.16666666666663C27.494857436116618,375,27.318041632668923,375,27.318041632668923,395.8333333333333C27.318041632668923,416.66666666666663,25.373067794744273,416.66666666666663,25.373067794744273,437.5C25.373067794744273,458.33333333333337,25.726699401639664,458.33333333333337,25.726699401639664,479.1666666666667C25.726699401639664,500,30.500726094727437,500,30.500726094727437,520.8333333333334Z" style="stroke: none;"/></g><g id="24/12/2025" transform="translate(620.9997765862377 ,0)" style="fill: rgb(23, 190, 207);"><path d="M30.500726094727437,520.8333333333334C30.500726094727437,500,30.500726094727437,500,30.500726094727437,479.1666666666667C30.500726094727437,458.33333333333337,30.500726094727437,458.33333333333337,30.500726094727437,437.5C30.500726094727437,416.66666666666663,30.500726094727437,416.66666666666663,30.500726094727437,395.8333333333333C30.500726094727437,375,30.500726094727437,375,30.500726094727437,354.16666666666663C30.500726094727437,333.3333333333333,30.500726094727437,333.3333333333333,30.500726094727437,312.5C30.500726094727437,291.6666666666667,30.500726094727437,291.6666666666667,30.500726094727437,270.83333333333337C30.500726094727437,250.00000000000003,31.20798930851822,250.00000000000003,31.20798930851822,229.16666666666669C31.20798930851822,208.33333333333334,33.5950026550621,208.33333333333334,33.5950026550621,187.5C33.5950026550621,166.66666666666666,33.24137104816671,166.66666666666666,33.24137104816671,145.83333333333331C33.24137104816671,125,32.35729203092824,125,32.35729203092824,104.16666666666669C32.35729203092824,83.33333333333334,32.35729203092824,83.33333333333334,32.35729203092824,62.5C32.35729203092824,41.66666666666666,33.7718184585098,41.66666666666666,33.7718184585098,20.833333333333314C33.7718184585098,-2.842170943040401e-14,30.500726094727437,-2.842170943040401e-14,30.500726094727437,-20.83333333333337L30.500726094727437,-20.83333333333337C30.500726094727437,-2.842170943040401e-14,27.229633730945075,-2.842170943040401e-14,27.229633730945075,20.833333333333314C27.229633730945075,41.66666666666666,28.64416015852664,41.66666666666666,28.64416015852664,62.5C28.64416015852664,83.33333333333334,28.64416015852664,83.33333333333334,28.64416015852664,104.16666666666669C28.64416015852664,125,27.76008114128816,125,27.76008114128816,145.83333333333331C27.76008114128816,166.66666666666666,27.40644953439277,166.66666666666666,27.40644953439277,187.5C27.40644953439277,208.33333333333334,29.793462880936655,208.33333333333334,29.793462880936655,229.16666666666669C29.793462880936655,250.00000000000003,30.500726094727437,250.00000000000003,30.500726094727437,270.83333333333337C30.500726094727437,291.6666666666667,30.500726094727437,291.6666666666667,30.500726094727437,312.5C30.500726094727437,333.3333333333333,30.500726094727437,333.3333333333333,30.500726094727437,354.16666666666663C30.500726094727437,375,30.500726094727437,375,30.500726094727437,395.8333333333333C30.500726094727437,416.66666666666663,30.500726094727437,416.66666666666663,30.500726094727437,437.5C30.500726094727437,458.33333333333337,30.500726094727437,458.33333333333337,30.500726094727437,479.1666666666667C30.500726094727437,500,30.500726094727437,500,30.500726094727437,520.8333333333334Z" style="stroke: none;"/></g><g id="15/01/2026" transform="translate(682.9998882931188 ,0)" style="fill: rgb(255, 127, 14);"><path d="M30.500726094727437,520.8333333333334C30.500726094727437,500,32.18047622748054,500,32.18047622748054,479.1666666666667C32.18047622748054,458.33333333333337,33.506594753338256,458.33333333333337,33.506594753338256,437.5C33.506594753338256,416.66666666666663,31.56162091541361,416.66666666666663,31.56162091541361,395.8333333333333C31.56162091541361,375,31.38480511196591,375,31.38480511196591,354.16666666666663C31.38480511196591,333.3333333333333,30.500726094727437,333.3333333333333,30.500726094727437,312.5C30.500726094727437,291.6666666666667,31.20798930851822,291.6666666666667,31.20798930851822,270.83333333333337C31.20798930851822,250.00000000000003,31.915252522309,250.00000000000003,31.915252522309,229.16666666666669C31.915252522309,208.33333333333334,32.97614734299517,208.33333333333334,32.97614734299517,187.5C32.97614734299517,166.66666666666666,31.296397210242066,166.66666666666666,31.296397210242066,145.83333333333331C31.296397210242066,125,30.500726094727437,125,30.500726094727437,104.16666666666669C30.500726094727437,83.33333333333334,31.38480511196591,83.33333333333334,31.38480511196591,62.5C31.38480511196591,41.66666666666666,33.152963146442865,41.66666666666666,33.152963146442865,20.833333333333314C33.152963146442865,-2.842170943040401e-14,30.500726094727437,-2.842170943040401e-14,30.500726094727437,-20.83333333333337L30.500726094727437,-20.83333333333337C30.500726094727437,-2.842170943040401e-14,27.848489043012005,-2.842170943040401e-14,27.848489043012005,20.833333333333314C27.848489043012005,41.66666666666666,29.61664707748896,41.66666666666666,29.61664707748896,62.5C29.61664707748896,83.33333333333334,30.500726094727437,83.33333333333334,30.500726094727437,104.16666666666669C30.500726094727437,125,29.70505497921281,125,29.70505497921281,145.83333333333331C29.70505497921281,166.66666666666666,28.0253048464597,166.66666666666666,28.0253048464597,187.5C28.0253048464597,208.33333333333334,29.086199667145873,208.33333333333334,29.086199667145873,229.16666666666669C29.086199667145873,250.00000000000003,29.793462880936655,250.00000000000003,29.793462880936655,270.83333333333337C29.793462880936655,291.6666666666667,30.500726094727437,291.6666666666667,30.500726094727437,312.5C30.500726094727437,333.3333333333333,29.61664707748896,333.3333333333333,29.61664707748896,354.16666666666663C29.61664707748896,375,29.439831274041264,375,29.439831274041264,395.8333333333333C29.439831274041264,416.66666666666663,27.494857436116618,416.66666666666663,27.494857436116618,437.5C27.494857436116618,458.33333333333337,28.820975961974334,458.33333333333337,28.820975961974334,479.1666666666667C28.820975961974334,500,30.500726094727437,500,30.500726094727437,520.8333333333334Z" style="stroke: none;"/></g></g></g><g id="legend" transform="translate(805,50)"><g transform="translate(5,0)"><g class="legendColor" transform="translate(0,0)"><g class="legendCells" transform="translate(0,16)"><g class="cell" transform="translate(0, 0)"><rect class="swatch" height="15" width="15" style="fill: rgb(31, 119, 180);"/><text class="label" transform="translate( 20, 12.5)" font-family="&quot;Arial&quot;, sans-serif" font-size="10px"><tspan x="0" dy="0em">14/04/2021</tspan></text></g><g class="cell" transform="translate(0, 21)"><rect class="swatch" height="15" width="15" style="fill: rgb(255, 127, 14);"/><text class="label" transform="translate( 20, 12.5)" font-family="&quot;Arial&quot;, sans-serif" font-size="10px"><tspan x="0" dy="0em">15/01/2026</tspan></text></g><g class="cell" transform="translate(0, 42)"><rect class="swatch" height="15" width="15" style="fill: rgb(44, 160, 44);"/><text class="label" transform="translate( 20, 12.5)" font-family="&quot;Arial&quot;, sans-serif" font-size="10px"><tspan x="0" dy="0em">16/12/2016</tspan></text></g><g class="cell" transform="translate(0, 63)"><rect class="swatch" height="15" width="15" style="fill: rgb(214, 39, 40);"/><text class="label" transform="translate( 20, 12.5)" font-family="&quot;Arial&quot;, sans-serif" font-size="10px"><tspan x="0" dy="0em">19/01/2020</tspan></text></g><g class="cell" transform="translate(0, 84)"><rect class="swatch" height="15" width="15" style="fill: rgb(148, 103, 189);"/><text class="label" transform="translate( 20, 12.5)" font-family="&quot;Arial&quot;, sans-serif" font-size="10px"><tspan x="0" dy="0em">19/07/2023</tspan></text></g><g class="cell" transform="translate(0, 105)"><rect class="swatch" height="15" width="15" style="fill: rgb(140, 86, 75);"/><text class="label" transform="translate( 20, 12.5)" font-family="&quot;Arial&quot;, sans-serif" font-size="10px"><tspan x="0" dy="0em">2/02/2018</tspan></text></g><g class="cell" transform="translate(0, 126)"><rect class="swatch" height="15" width="15" style="fill: rgb(227, 119, 194);"/><text class="label" transform="translate( 20, 12.5)" font-family="&quot;Arial&quot;, sans-serif" font-size="10px"><tspan x="0" dy="0em">21/06/2022</tspan></text></g><g class="cell" transform="translate(0, 147)"><rect class="swatch" height="15" width="15" style="fill: rgb(121, 83, 245);"/><text class="label" transform="translate( 20, 12.5)" font-family="&quot;Arial&quot;, sans-serif" font-size="10px"><tspan x="0" dy="0em">21/12/2015</tspan></text></g><g class="cell" transform="translate(0, 168)"><rect class="swatch" height="15" width="15" style="fill: rgb(188, 189, 34);"/><text class="label" transform="translate( 20, 12.5)" font-family="&quot;Arial&quot;, sans-serif" font-size="10px"><tspan x="0" dy="0em">24/12/2017</tspan></text></g><g class="cell" transform="translate(0, 189)"><rect class="swatch" height="15" width="15" style="fill: rgb(23, 190, 207);"/><text class="label" transform="translate( 20, 12.5)" font-family="&quot;Arial&quot;, sans-serif" font-size="10px"><tspan x="0" dy="0em">24/12/2025</tspan></text></g><g class="cell" transform="translate(0, 210)"><rect class="swatch" height="15" width="15" style="fill: rgb(184, 74, 204);"/><text class="label" transform="translate( 20, 12.5)" font-family="&quot;Arial&quot;, sans-serif" font-size="10px"><tspan x="0" dy="0em">31/03/2019</tspan></text></g><g class="cell" transform="translate(0, 231)"><rect class="swatch" height="15" width="15" style="fill: rgb(87, 98, 204);"/><text class="label" transform="translate( 20, 12.5)" font-family="&quot;Arial&quot;, sans-serif" font-size="10px"><tspan x="0" dy="0em">6/02/2024</tspan></text></g></g><text class="legendTitle" font-family="&quot;Arial&quot;, sans-serif" font-size="12px" font-weight="bold"><tspan x="0" dy="0em">peak_day</tspan></text></g></g></g></svg>